<?xml version="1.0" encoding="UTF-8" standalone="no"?>
<!-- Created with Inkscape (http://www.inkscape.org/) -->

<svg
   xmlns:dc="http://purl.org/dc/elements/1.1/"
   xmlns:cc="http://creativecommons.org/ns#"
   xmlns:rdf="http://www.w3.org/1999/02/22-rdf-syntax-ns#"
   xmlns:svg="http://www.w3.org/2000/svg"
   xmlns="http://www.w3.org/2000/svg"
   xmlns:sodipodi="http://sodipodi.sourceforge.net/DTD/sodipodi-0.dtd"
   xmlns:inkscape="http://www.inkscape.org/namespaces/inkscape"
   width="68mm"
   height="46mm"
   viewBox="0 0 68 46"
   version="1.1"
   id="svg4671"
   inkscape:version="0.92.4 (5da689c313, 2019-01-14)"
   sodipodi:docname="logo.svg">
  <defs
     id="defs4665" />
  <sodipodi:namedview
     id="base"
     pagecolor="#ffffff"
     bordercolor="#666666"
     borderopacity="1.0"
     inkscape:pageopacity="0.0"
     inkscape:pageshadow="2"
     inkscape:zoom="1.979899"
     inkscape:cx="60.566662"
     inkscape:cy="-29.041229"
     inkscape:document-units="mm"
     inkscape:current-layer="layer1"
     showgrid="false"
     inkscape:window-width="1920"
     inkscape:window-height="1046"
     inkscape:window-x="-11"
     inkscape:window-y="-11"
     inkscape:window-maximized="1" />
  <metadata
     id="metadata4668">
    <rdf:RDF>
      <cc:Work
         rdf:about="">
        <dc:format>image/svg+xml</dc:format>
        <dc:type
           rdf:resource="http://purl.org/dc/dcmitype/StillImage" />
        <dc:title></dc:title>
      </cc:Work>
    </rdf:RDF>
  </metadata>
  <g
     inkscape:label="Layer 1"
     inkscape:groupmode="layer"
     id="layer1"
     transform="translate(0,-251)">
    <path
       inkscape:connector-curvature="0"
       style="fill:#6600cc;stroke-width:0.26458332"
       d="m 43.316187,251.37915 c -0.248047,-0.008 -0.496094,0.21498 -0.744141,0.25632 -0.283474,0.0472 -1.038251,1.27685 -1.132734,1.5131 -0.09448,0.23624 -0.760677,1.13273 -0.760677,1.13273 0,0 -0.514985,0.66736 -0.892969,1.28159 -0.377983,0.61423 -0.950859,0.80201 -0.950859,0.80201 0,0 -0.375603,0.18662 -0.942578,0.28112 -0.566976,0.0945 -1.608773,0.46892 -2.033985,0.42169 -0.425212,-0.0472 -1.839092,0.61775 -2.406068,0.90122 -0.566975,0.28348 -1.273307,0.89887 -1.604036,1.18237 -0.330729,0.2835 -0.810287,0.38034 -0.810287,0.38034 0,0 -1.084315,0.42405 -1.273307,0.47128 -0.188992,0.0472 -0.565785,0.51617 -0.471276,0.75242 0.09451,0.23625 -0.380338,0.52091 -0.380338,0.52091 0,0 -0.752422,0.42169 -1.083151,0.75242 -0.08064,0.0806 -0.116827,0.18912 -0.124024,0.30591 L 1.7517203,256.03433 c 0,0 -0.28702,-1.41743 -0.570495,-1.32292 -0.28347405,0.0945 -0.80200505,0.46656 -0.80200505,0.70278 0,0.23622 0.14056,1.28159 0.14056,1.28159 0,0 0.75713205,0.32719 0.85164105,0.091 0.09451,-0.23623 26.2646577,6.08198 26.4501307,6.1267 0.06301,0.17262 0.131522,0.32763 0.148828,0.39687 l -0.239779,0.70279 c 0,0 0.709878,0.0532 0.851641,0.2894 0.141764,0.23625 0.901224,1.03351 0.901224,1.03351 l 0.752422,-0.42169 0.711068,-0.0496 c 0,0 1.035896,-0.56459 1.083151,-0.94258 0.04725,-0.37798 0.62013,-1.2733 0.62013,-1.2733 l 1.033516,-0.0496 0.04961,1.18237 c 0,0 -0.375602,0.33072 -0.611849,0.33072 -0.236246,0 -0.425238,0.23388 -0.661458,0.61185 -0.23622,0.37798 -0.14056,0.56698 -0.14056,1.32292 0,0.75594 -0.09922,0.665 -0.429948,0.90122 -0.330729,0.23622 0.04961,0.80201 0.04961,0.80201 0,0 -0.376794,1.22605 -0.471276,1.60404 -0.09448,0.37798 0.474821,1.84618 0.711067,2.22414 0.236247,0.37795 1.083152,2.59622 1.083152,2.59622 l -0.28112,1.23195 c 0,0 -0.803196,0.0945 -0.992188,0 -0.188991,-0.0945 -0.711067,0.75243 -0.711067,0.75243 l -13.13815,-7.9375 -0.28112,0.47127 13.038931,8.50794 7.185025,4.7707 c 0,0 -1.374881,1.03826 -1.422135,0.80201 -0.04725,-0.23625 -0.518531,-0.94731 -0.802005,-1.0418 -0.283475,-0.0945 -0.943769,1.27566 -1.132734,1.32292 -0.188966,0.0472 -1.18237,0.66146 -1.18237,0.66146 l -14.171613,-4.82045 0.14056,1.09141 19.794008,7.03633 13.047134,5.29167 c 0,0 4.063206,2.55725 4.960937,3.26601 0.897731,0.70877 3.117056,-0.2894 3.117056,-0.2894 0,0 5.054336,1.65955 5.76289,1.61232 0.708554,-0.0472 1.653646,-1.23195 1.653646,-1.23195 l -0.942578,-0.23985 c 0,0 -2.178103,-0.37089 -2.745052,-0.1819 -0.56695,0.18899 -4.018492,-1.5131 -4.018492,-1.5131 l -8.268229,-3.49753 -9.161198,-6.66432 0.752422,-0.80201 2.604505,-3.21627 3.017838,-3.01784 c 0.330729,-0.33073 0.336629,-0.28586 0.62013,-0.71107 0.283501,-0.42521 -0.142922,-0.71107 -0.190169,-1.0418 -0.04725,-0.33073 -0.236233,-0.18544 -0.330729,-0.42169 -0.0945,-0.23625 -0.240959,-0.56814 -0.429948,-0.85164 -0.188989,-0.2835 -0.424048,-0.32837 -0.802005,-0.61185 -0.377957,-0.28347 -0.947314,-0.28347 -1.372526,-0.33073 -0.425212,-0.0472 -0.661458,-0.23978 -0.661458,-0.23978 0,0 0.240958,-0.23387 0.429947,-0.61185 0.18899,-0.37797 0.656749,-0.47127 0.892969,-0.47127 0.23622,0 0.525621,-0.90242 0.620131,-1.09141 0.09451,-0.18899 0.142922,-0.79729 0.190169,-1.03351 0.04725,-0.23622 -0.243322,-0.52092 -0.479557,-0.85164 -0.236236,-0.33073 -0.466567,-0.23624 -0.702787,-0.33073 -0.23622,-0.0945 -0.902414,-0.28702 -1.422135,-0.23978 -0.519721,0.0472 -1.133925,-0.27877 -1.653646,-0.23151 -0.519721,0.0473 -1.08667,-0.24333 -1.322917,-0.14883 -0.236246,0.0945 -0.568139,-0.65556 -0.190169,-1.03352 0.377971,-0.37795 0.196075,-0.33663 0.479557,-0.62013 0.283483,-0.2835 0.89416,-1.08669 1.083152,-1.32291 0.188992,-0.23622 0.144105,0.005 0.380338,-0.23151 0.236233,-0.23625 1.035897,-0.23742 1.413881,-0.19017 0.377983,0.0473 0.760677,-0.0945 1.091406,0 0.330729,0.0945 0.707522,0.0461 1.132734,0.14056 0.425212,0.0945 0.944933,0.33073 1.653646,0.66146 0.708713,0.33072 1.274498,0.23859 1.794192,0.38033 0.519695,0.14174 0.805551,0.18427 1.703256,0.23151 0.897704,0.0473 1.085506,0.19017 1.463463,0.19017 0.377957,0 1.322917,0.33073 1.322917,0.33073 l 1.033515,-0.0413 c 0,0 0.45683,-0.0306 0.934297,-0.0579 l -4.142317,20.46394 c 0,0 -1.322917,-0.18899 -1.322917,0 0,0.18898 0.09213,0.8528 0.28112,1.04179 0.188989,0.18899 0.711068,0.33073 0.711068,0.33073 l -0.190169,2.12492 0.380338,0.091 0.190169,-2.21588 0.661459,-0.38034 c 0,0 0.137014,-0.70398 -0.09922,-0.89297 -0.227425,-0.18194 3.75629,-19.14419 4.059767,-20.58776 0.122293,-0.006 0.327765,-0.0165 0.380338,-0.0165 0.283475,0 0.428757,-0.14174 0.570495,-0.33073 0.141737,-0.18898 0.51853,-0.51617 0.471276,-0.75242 -0.04725,-0.23625 0.330729,-0.33073 0.330729,-0.33073 0,0 0.522076,-0.098 0.380338,-0.57049 -0.141737,-0.47246 -0.05315,-0.0898 0.04134,-0.56224 0.09449,-0.47247 -0.185443,-0.38034 -0.421692,-0.71107 -0.23625,-0.33073 -0.473658,-0.18899 -0.851641,-0.33073 -0.377984,-0.14174 -0.663813,-0.052 -1.041797,-0.0992 -0.377984,-0.0473 -0.377984,0.14647 -0.992188,0.0992 -0.614203,-0.0473 -0.752422,0.38034 -0.752422,0.38034 0,0 -1.508363,-0.14292 -2.075338,-0.19017 -0.566976,-0.0472 -1.18237,-0.47247 -1.5131,-0.66146 -0.330728,-0.18898 -0.995732,-0.0945 -1.231952,-0.33072 -0.23622,-0.23623 -0.705167,-0.47247 -0.752422,-0.66146 -0.04725,-0.18899 -2.55606,-1.2296 -2.745052,-1.5131 -0.188992,-0.2835 -0.468921,-0.2386 -0.752422,-0.38034 -0.283501,-0.14174 -1.557972,-0.33308 -1.794192,-0.38034 -0.23622,-0.0473 -0.333084,0.0992 -0.380339,-0.23151 -0.04725,-0.33072 0.09804,-0.42994 0.239779,-0.76067 0.141742,-0.33073 0.328374,-0.47128 0.611849,-0.80201 0.283474,-0.33073 0.144102,-0.6083 0.380338,-1.03351 0.236236,-0.42522 0.0437,-0.52682 0.09095,-1.14102 0.04725,-0.6142 -0.09568,-0.47127 -0.190169,-1.13273 -0.09449,-0.66146 -0.425239,-0.47366 -0.661459,-0.85164 -0.23622,-0.37799 -0.565785,-0.42524 -1.132734,-0.66146 -0.566949,-0.23622 -0.79965,-0.27758 -1.083151,-0.37206 -0.03544,-0.0118 -0.07205,-0.0236 -0.107487,-0.0248 z m -3.580077,25.68099 1.843828,0.14056 0.851641,0.66146 -1.843828,1.18237 -0.851641,-1.98438 z m 6.995054,10.95534 2.124922,1.5131 -2.414323,-0.94258 0.289401,-0.57049 z m 10.343621,5.67214 c 0.188989,0 1.984375,0.90122 1.984375,0.90122 l -0.380339,0.42169 z"
       id="path919" />
  </g>
</svg>
